<svg id="Brand" data-name="Brand" xmlns="http://www.w3.org/2000/svg" viewBox="0 0 830 123"><path class="company-style" d="M33.18,2S21.9,2,14.72,2C10.64,2,8.35,3.86,8.35,8.53V95.7a2.84,2.84,0,1,0,5.66,0V11c0-2.92,0-3.22,3-3.22l16.21.1a22.91,22.91,0,1,1,0,45.81l-9.58,0v5.91h9.58A28.83,28.83,0,0,0,33.18,2Z"/><path d="M23.6,51.89l9,0a21.22,21.22,0,0,0,0-42.43L18.93,9.42c-2.77,0-2.9,0-2.89,2.93V95.6a2.84,2.84,0,1,0,5.67,0V18.52c0-2.92.5-3.13,1.67-3.13l9.19-.12a15.44,15.44,0,0,1,0,30.87h-9Z"/><path d="M68.77,49.19a24.71,24.71,0,1,0,24.71,24.7A24.71,24.71,0,0,0,68.77,49.19ZM68.65,92.1A18.58,18.58,0,1,1,87.23,73.52,18.58,18.58,0,0,1,68.65,92.1Z"/><path d="M68.73,56.74A16.65,16.65,0,1,0,85.38,73.39,16.66,16.66,0,0,0,68.73,56.74Zm.28,27A10.55,10.55,0,1,1,79.56,73.15,10.55,10.55,0,0,1,69,83.7Z"/><path d="M103.27,11V95.7a2.84,2.84,0,1,0,5.67,0V8.53c0-4.67,0-6.49-6.54-6.58s-6.46,1.91-6.46,6.58V95.7a2.84,2.84,0,1,0,5.67,0V11c0-2.92,0-3.22.79-3.22S103.27,8.07,103.27,11Z"/><path d="M117.87,56a3.06,3.06,0,1,0-6.1,0l.06,17.41c0,13.64,7.06,25.45,20.7,25.45a20,20,0,0,0,6.78-1.1c0,5-1.05,9-8.16,9H111.71l6.1,6.15h10.93c14.08,0,16.4-2.79,16.42-29.2-2.14,5.17-6.25,8.65-12.75,8.65-10.27,0-14.58-8.69-14.58-19Z"/><path d="M145.15,55.86a2.93,2.93,0,1,0-5.85,0l0,17.55c0,5.83-.72,10.55-6.55,10.55s-6.55-4.72-6.55-10.55l0-17.3a3.17,3.17,0,1,0-6.32,0l0,17.3c0,9.19,3.45,16.89,12.64,16.89s12.65-7.7,12.65-16.89Z"/><path d="M153.17,56.06a3.11,3.11,0,1,0-6.2,0l0,17.35V95.62c0,12.14-2.95,19.46-15.77,19.46,0,0-11.26,0-11.26,0l6.1,6.14s5.16,0,5.16,0c20.13,0,22-16.21,22-25.6,0-3.58,0-15.5,0-22.21C153.19,73.54,153.17,56.06,153.17,56.06Z"/><path d="M245.44,69a23.13,23.13,0,1,1-3.39-10.8l-33,10a12.88,12.88,0,0,0,.62,5.91l40.21-12.17A28.78,28.78,0,1,0,251,67.31Z"/><path d="M237.54,71.38A15.18,15.18,0,1,1,218,55.56a15.49,15.49,0,0,1,7.09-.42c-7.29.48-12.71,3.55-15.54,10.83L238.94,57a21.26,21.26,0,1,0,4.62,12.5Z"/><path d="M293.19,95.69a2.84,2.84,0,1,0,5.67,0v-19a21.21,21.21,0,0,0-21.21-21.21L264,55.42c-2.77,0-2.9,0-2.89,2.92V95.6a2.84,2.84,0,1,0,5.67,0V64.51c0-2.92.5-3.12,1.67-3.12l9.19-.13A15.44,15.44,0,0,1,293,76.7Z"/><path d="M301.44,95.6a2.84,2.84,0,1,0,5.66,0V76.77a28.83,28.83,0,0,0-28.83-28.83s-11.28,0-18.46,0c-4.08,0-6.37,1.91-6.37,6.58V95.69a2.84,2.84,0,1,0,5.66,0V57c0-2.92,0-3.22,3-3.22l16.21.11a22.91,22.91,0,0,1,22.91,22.9Z"/><line x1="324.84" y1="44.02" x2="324.84" y2="42.27"/><path d="M399.71,63.43V95.6a2.84,2.84,0,1,0,5.67,0l.08-32.17c.05-3.1,9.09-4.31,12.13,2.64L423,64.43C418.11,51.94,400,55.07,399.71,63.43Z"/><path d="M392,63.52V95.69a2.84,2.84,0,1,0,5.67,0l0-32.13c0-11.4,21.59-13.44,27.58.18l5.55-1.68C423.26,42.59,392,44.86,392,63.52Z"/><path d="M382.06,68.62a23.12,23.12,0,1,1-3.39-10.8l-33,10a12.89,12.89,0,0,0,.62,5.91l40.21-12.18a28.74,28.74,0,1,0,1.1,5.39Z"/><path d="M374.16,71A15.18,15.18,0,1,1,354.64,55.2a15.72,15.72,0,0,1,7.08-.42c-7.29.49-12.71,3.56-15.54,10.83l29.38-8.93a21.27,21.27,0,1,0,4.62,12.51Z"/><path d="M442.34,37.86V95.54a2.84,2.84,0,1,0,5.67,0v-52l16.56,0h.4l-5.73-5.72Z"/><path d="M448,30.44V8.37c0-4.67,0-6.49-6.54-6.59S435,3.7,435,8.37V95.54a2.84,2.84,0,1,0,5.67,0V10.83c0-2.92,0-3.22.79-3.22s.87.3.87,3.22V36.11h15.22l-5.65-5.65Z"/><path d="M318.55,37.86V95.54a2.84,2.84,0,1,0,5.67,0v-52l16.56,0h.39l-5.72-5.72Z"/><path d="M324.22,30.44V8.37c0-4.67,0-6.49-6.55-6.59s-6.45,1.92-6.45,6.59V95.54a2.84,2.84,0,1,0,5.67,0V10.83c0-2.92,0-3.22.78-3.22s.88.3.88,3.22V36.11h15.22l-5.65-5.65Z"/><path d="M516.46,59V95.66a2.84,2.84,0,1,0,5.67,0V56.49c0-4.67,0-6.49-6.55-6.58s-6.45,1.91-6.45,6.58V95.66a2.84,2.84,0,1,0,5.66,0V59c0-2.92,0-3.22.79-3.22S516.46,56,516.46,59Z"/><path d="M514.82,43.63l0,.86a2.87,2.87,0,1,1-5.72-.06l.11-3.32c.05-4.66.05-6.48,6.61-6.51s6.44,2,6.39,6.66l0,3.37a2.84,2.84,0,1,1-5.67-.06v-.92c0-2.91,0-3.22-.75-3.22S514.85,40.72,514.82,43.63Z"/><path d="M567.87,95.69a2.84,2.84,0,1,0,5.67,0v-19a21.21,21.21,0,0,0-21.22-21.21l-13.62-.07c-2.77,0-2.9,0-2.89,2.92V95.6a2.84,2.84,0,1,0,5.67,0V64.51c0-2.92.5-3.12,1.66-3.12l9.19-.13A15.44,15.44,0,0,1,567.7,76.7Z"/><path d="M576.12,95.6a2.84,2.84,0,1,0,5.66,0V76.77A28.83,28.83,0,0,0,553,47.94s-11.28,0-18.46,0c-4.08,0-6.38,1.91-6.38,6.58V95.69a2.84,2.84,0,1,0,5.66,0V57c0-2.92,0-3.22,3-3.22l16.21.11a22.91,22.91,0,0,1,22.91,22.9Z"/><path d="M622.54,95.63a2.84,2.84,0,1,0,5.66,0v-19c0-11.72-6.49-21.22-18.21-21.22l-10.62-.07c-2.78,0-2.9,0-2.89,2.93V95.53a2.84,2.84,0,1,0,5.67,0V64.45c0-2.92.49-3.13,1.66-3.13L610,61.2c8.5,0,12.38,6.93,12.38,15.44Z"/><path d="M630.78,95.53a2.84,2.84,0,1,0,5.67,0V76.71c0-15.92-9.91-28.83-25.83-28.83,0,0-8.28,0-15.46,0-4.09,0-6.38,1.91-6.38,6.58V95.63a2.84,2.84,0,1,0,5.67,0V56.92c0-2.92,0-3.22,3-3.22l13.21.1c12.65,0,19.9,10.26,19.9,22.91Z"/><path d="M643.25,55.42a19.61,19.61,0,0,0-10.06,2.83A28.46,28.46,0,0,1,636,63.41a14.2,14.2,0,0,1,7.25-2.21c8.5,0,12.38,6.93,12.38,15.44l.17,19a2.84,2.84,0,1,0,5.67,0v-19C661.47,64.92,655,55.42,643.25,55.42Z"/><path d="M643.88,47.88h-1.25a24.66,24.66,0,0,0-14.52,4.47,24.2,24.2,0,0,1,4.17,4.4,20.38,20.38,0,0,1,10.35-3h1.25c12.65,0,19.91,10.26,19.91,22.91l.26,18.82a2.84,2.84,0,1,0,5.66,0V76.71C669.71,60.79,659.8,47.88,643.88,47.88Z"/><path d="M725.88,68.62a23.13,23.13,0,1,1-3.39-10.8l-33,10a12.89,12.89,0,0,0,.62,5.91L730.3,61.57A28.74,28.74,0,1,0,731.4,67Z"/><path d="M718,71A15.18,15.18,0,1,1,698.45,55.2a15.76,15.76,0,0,1,7.09-.42c-7.3.49-12.72,3.56-15.55,10.83l29.38-8.93A21.25,21.25,0,1,0,724,69.19Z"/><path d="M776.86,95.69a2.84,2.84,0,1,0,5.67,0v-19a21.21,21.21,0,0,0-21.22-21.21l-13.62-.07c-2.77,0-2.9,0-2.89,2.92V95.6a2.84,2.84,0,1,0,5.67,0V64.51c0-2.92.5-3.12,1.66-3.12l9.19-.13A15.44,15.44,0,0,1,776.69,76.7Z"/><path d="M785.1,95.6a2.84,2.84,0,1,0,5.67,0V76.77a28.83,28.83,0,0,0-28.83-28.83s-11.28,0-18.46,0c-4.09,0-6.38,1.91-6.38,6.58V95.69a2.84,2.84,0,1,0,5.67,0V57c0-2.92,0-3.22,3-3.22l16.21.11a22.9,22.9,0,0,1,22.9,22.9Z"/><path d="M804,38V95.69a2.84,2.84,0,1,0,5.67,0v-52h16.95l-5.72-5.73Z"/><path d="M809.7,30.6V8.52c0-4.67,0-6.49-6.55-6.58s-6.45,1.91-6.45,6.58V95.69a2.84,2.84,0,1,0,5.67,0V11c0-2.92,0-3.22.78-3.22s.88.3.88,3.22V36.26h15.22l-5.65-5.65Z"/><path d="M497.09,95.54a2.84,2.84,0,1,0,5.67,0V53.6c0-4.66,0-6.49-6.54-6.58H476.46a25.11,25.11,0,1,0,0,50.21h11.36V91.48c-1.93,0-6.56,0-11.63,0a19.06,19.06,0,0,1,0-38.11l20,.06c.83,0,.88.3.88,3.21Z"/><path d="M489.76,95.54a2.84,2.84,0,1,0,5.67,0V58.2c0-2.94-.12-2.93-2.89-2.93H476.28a17.18,17.18,0,1,0,0,34.36l11.53,0,0-5.92-11.55.13a11.43,11.43,0,1,1,0-22.86l11.82.22c1.17,0,1.67.2,1.67,3.12Z"/></svg>