<svg id="logo" data-name="logo" xmlns="http://www.w3.org/2000/svg" viewBox="0 0 900.12 1049.8"><defs><style>.cls-1{fill:#ffffff;}</style></defs><title>logo</title><path class="cls-1" d="M593.77,516.76c208.58-9.93,195.34-122.5,314.53-105.95,135.74,19.87,119.19,202,0,261.56C862,692.23,785.8,698.85,775.87,639.26c0-19.87,0-49.66,49.66-33.11-13.24,0-33.11,0-26.49,33.11C809,672.37,908.3,652.5,918.23,566.42c9.93-122.5-79.46-33.11-192-26.49C666.61,549.87,560.66,513.45,593.77,516.76Z" transform="translate(-103.88 0)"/><path class="cls-1" d="M656.68,573c26.48,0,59.59,33.11,79.46,46.35C756,639.26,554,1049.8,527.56,1049.8s-92.71-13.24-109.26-33.11l19.86,9.93C461.34,1029.94,669.92,602.84,656.68,573Z" transform="translate(-103.88 0)"/><path class="cls-1" d="M368.64,937.23c9.93,46.35-62.91,13.25-92.71-33.11-26.48-39.73-79.46-142.36-33.1-208.58,62.9-92.7,178.78-26.48,195.33-9.93V636c-33.1-46.35-59.59-59.6-89.39-254.93-26.48-241.69,59.6-278.11,142.37-254.94,132.43,39.73,178.78,238.38,178.78,248.31s9.93,132.44,33.11-9.93c26.49-135.74-62.91-288-208.58-337.7C421.61.27,213-49.39,140.19,132.7c-86.08,208.59,122.5,423.79,106,443.65C226.27,589.6,80.6,642.57,107.08,801.49S289.18,1029.94,362,1043.18s49.66-106,49.66-122.5L332.22,834.6C335.53,831.29,355.39,864.39,368.64,937.23Z" transform="translate(-103.88 0)"/></svg>